<mxfile host="app.diagrams.net" modified="2021-04-14T09:33:29.507Z" agent="5.0 (Windows NT 10.0; Win64; x64) AppleWebKit/537.36 (KHTML, like Gecko) Chrome/89.0.4389.114 Safari/537.36 Edg/89.0.774.76" etag="_tFPAfemkq7sQUghHARW" version="14.6.0" type="github">
  <diagram id="w-0ZOvCE4AglCOZXqu2t" name="Page-1">
    <mxGraphModel dx="1148" dy="713" grid="1" gridSize="10" guides="1" tooltips="1" connect="1" arrows="1" fold="1" page="1" pageScale="1" pageWidth="850" pageHeight="1100" math="0" shadow="0">
      <root>
        <mxCell id="0" />
        <mxCell id="1" parent="0" />
        <mxCell id="TGOuK4oaPCvlFnadVp6p-1" value="开始&lt;br&gt;(嵌入隐密数据)" style="shape=parallelogram;perimeter=parallelogramPerimeter;whiteSpace=wrap;html=1;fixedSize=1;" vertex="1" parent="1">
          <mxGeometry x="320" y="160" width="120" height="60" as="geometry" />
        </mxCell>
      </root>
    </mxGraphModel>
  </diagram>
</mxfile>
